<svg width="270" height="140" viewBox="0 0 270 140" fill="none" xmlns="http://www.w3.org/2000/svg">
<mask id="mask0" mask-type="alpha" maskUnits="userSpaceOnUse" x="141" y="9" width="123" height="123">
<circle cx="202.5" cy="70.5" r="61.5" fill="#F05454"/>
</mask>
<g mask="url(#mask0)">
<circle cx="202.5" cy="70.5" r="61.5" fill="#F05454"/>
<path d="M132.517 105.106C172.168 97.8946 254.815 74.818 268.197 40.203C284.924 -3.06572 243.57 166.223 132.517 105.106Z" fill="#D84B4B"/>
<path d="M168.169 133.171C235.182 123.275 260.419 84.9845 264.66 67.0765C269.019 58.7115 277.172 51.8075 274.91 91.111C272.082 140.24 84.4013 145.542 168.169 133.171Z" fill="#D84B4B"/>
<path d="M130.817 92.2291C126.293 91.0981 136.472 76.2061 142.127 68.9015C179.734 75.6877 227.544 45.1027 246.748 28.9619C255.584 20.5969 270.853 10.2291 261.24 35.6774C249.222 67.4877 136.472 93.6429 130.817 92.2291Z" fill="#D84B4B"/>
<path d="M124.891 53.669C184.417 45.0058 233.737 15.2796 229.12 -1.10647C224.502 -17.4926 132.902 11.4318 124.891 53.669Z" fill="#FA6767"/>
</g>
<path d="M7.05 93L21.4 44H32.6L46.95 93H37.15L34 81.8H20L16.85 93H7.05ZM32.25 75.5L28.05 60.8C27.91 60.2867 27.77 59.68 27.63 58.98C27.49 58.2333 27.3967 57.6967 27.35 57.37L27.14 55.55H26.86L26.58 57.37C26.4867 57.79 26.37 58.3733 26.23 59.12C26.1367 59.82 26.0433 60.38 25.95 60.8L21.75 75.5H32.25ZM65.4727 93.7C60.946 93.7 57.166 93.07 54.1327 91.81C52.546 91.2033 51.3093 90.55 50.4227 89.85L53.5727 84.25H54.2727C54.8793 84.7633 55.7193 85.3 56.7927 85.86C59.0327 86.8867 61.6927 87.4 64.7727 87.4C67.526 87.4 69.6027 86.77 71.0027 85.51C72.4493 84.25 73.1727 82.5467 73.1727 80.4C73.1727 79.0467 72.776 77.88 71.9827 76.9C71.1893 75.8733 70.186 75.01 68.9727 74.31C67.7593 73.5633 66.1027 72.7 64.0027 71.72C61.2027 70.4133 58.916 69.2 57.1427 68.08C55.3693 66.9133 53.8527 65.3967 52.5927 63.53C51.3793 61.6633 50.7727 59.3533 50.7727 56.6C50.7727 54.1267 51.426 51.8867 52.7327 49.88C54.0393 47.8267 55.9293 46.2167 58.4027 45.05C60.876 43.8833 63.816 43.3 67.2227 43.3C71.3293 43.3 74.8993 43.9533 77.9327 45.26C79.286 45.7733 80.4993 46.4033 81.5727 47.15L78.4227 52.75H77.7227C77.2093 52.33 76.416 51.8167 75.3427 51.21C73.1027 50.1367 70.6293 49.6 67.9227 49.6C65.8693 49.6 64.1193 50.2533 62.6727 51.56C61.2727 52.82 60.5727 54.2667 60.5727 55.9C60.5727 57.2533 60.9693 58.4433 61.7627 59.47C62.556 60.45 63.5593 61.3133 64.7727 62.06C65.986 62.76 67.6427 63.6 69.7427 64.58C72.5427 65.8867 74.8293 67.1233 76.6027 68.29C78.376 69.41 79.8693 70.9033 81.0827 72.77C82.3427 74.6367 82.9727 76.9467 82.9727 79.7C82.9727 82.4067 82.296 84.8333 80.9427 86.98C79.636 89.08 77.6527 90.7367 74.9927 91.95C72.3793 93.1167 69.206 93.7 65.4727 93.7ZM97.0164 93V50.3H84.7664V44H119.066V50.3H106.816V93H97.0164ZM125.7 44H139C145.487 44 150.247 45.33 153.28 47.99C156.36 50.65 157.9 54.57 157.9 59.75C157.9 64.5567 156.383 68.3367 153.35 71.09C151.997 72.3033 150.48 73.19 148.8 73.75L160.7 93H149.5L139.35 75.5H135.5V93H125.7V44ZM139 69.2C142.22 69.2 144.53 68.4767 145.93 67.03C147.377 65.5367 148.1 63.11 148.1 59.75C148.1 56.39 147.377 53.9867 145.93 52.54C144.53 51.0467 142.22 50.3 139 50.3H135.5V69.2H139Z" fill="white"/>
</svg>
